<?xml version="1.0" encoding="UTF-8" standalone="no"?>
<!-- Generator: Adobe Illustrator 18.0.0, SVG Export Plug-In . SVG Version: 6.00 Build 0)  -->

<svg
   xmlns:dc="http://purl.org/dc/elements/1.1/"
   xmlns:cc="http://creativecommons.org/ns#"
   xmlns:rdf="http://www.w3.org/1999/02/22-rdf-syntax-ns#"
   xmlns:svg="http://www.w3.org/2000/svg"
   xmlns="http://www.w3.org/2000/svg"
   xmlns:sodipodi="http://sodipodi.sourceforge.net/DTD/sodipodi-0.dtd"
   xmlns:inkscape="http://www.inkscape.org/namespaces/inkscape"
   version="1.1"
   id="Layer_1"
   x="0px"
   y="0px"
   viewBox="0 0 100 100"
   enable-background="new 0 0 100 100"
   xml:space="preserve"
   sodipodi:docname="user_circle_blue.svg"
   inkscape:version="0.92.3 (2405546, 2018-03-11)"><metadata
   id="metadata9"><rdf:RDF><cc:Work
       rdf:about=""><dc:format>image/svg+xml</dc:format><dc:type
         rdf:resource="http://purl.org/dc/dcmitype/StillImage" /><dc:title></dc:title></cc:Work></rdf:RDF></metadata><defs
   id="defs7" /><sodipodi:namedview
   pagecolor="#ffffff"
   bordercolor="#666666"
   borderopacity="1"
   objecttolerance="10"
   gridtolerance="10"
   guidetolerance="10"
   inkscape:pageopacity="0"
   inkscape:pageshadow="2"
   inkscape:window-width="1068"
   inkscape:window-height="753"
   id="namedview5"
   showgrid="false"
   inkscape:zoom="2.36"
   inkscape:cx="50.138424"
   inkscape:cy="50.048102"
   inkscape:window-x="421"
   inkscape:window-y="184"
   inkscape:window-maximized="0"
   inkscape:current-layer="Layer_1" />
<path
   d="M50,0C22.4,0,0,22.4,0,50s22.4,50,50,50s50-22.4,50-50S77.6,0,50,0z M70.1,71.6v14H29.4v-14  c0-7.7,3.9-14.7,10.6-18.2C33.2,50,29.4,43.1,29.4,35c0-11,8-20.6,20.6-20.6S70.6,23.9,70.6,35c0,8.1-3.7,15-10.5,18.4  C66.6,56.7,70.4,63.5,70.1,71.6z"
   id="path2"
   fill="#0041C4" />
<path
   style="fill:#ff0000;fill-opacity:0;stroke:#4700c9;stroke-width:0.42372882;stroke-opacity:0"
   d="M 42.02772,99.512436 C 31.809892,97.921428 20.466727,91.924665 13.556189,84.460458 -5.094517,64.31547 -4.6198812,33.63363 14.638157,14.518937 21.716764,7.4930182 30.348239,2.8456588 40,0.86360996 53.155267,-1.8379053 67.191983,1.0275536 78.446424,8.712072 c 4.139614,2.826524 10.315953,8.995217 12.878733,12.862794 7.265216,10.964165 10.110753,23.338642 8.232241,35.799778 C 95.395369,84.983496 69.680733,103.81826 42.02772,99.512436 Z M 69.983424,76.122881 C 69.816377,68.211928 69.660818,66.512992 68.884983,64.126102 67.704869,60.495407 65.206627,57.062767 62.274788,55.04353 l -2.355275,-1.622136 2.061309,-1.388169 c 4.080907,-2.748242 6.752085,-6.898344 7.886216,-12.252481 0.782051,-3.692005 0.787712,-5.588952 0.02737,-9.176366 C 67.727729,20.381372 58.996886,13.89229 48.512852,14.712814 37.417244,15.581203 29.862001,23.619286 29.72309,34.70339 c -0.09319,7.435911 2.70809,13.36022 8.060331,17.046449 l 2.312531,1.592703 -1.190821,0.849916 c -4.218331,3.01072 -6.907746,6.53555 -8.327485,10.914262 -0.710957,2.192708 -0.894302,4.157928 -1.06729,11.43989 l -0.208867,8.792373 h 20.438274 20.438271 z"
   id="path4522"
   inkscape:connector-curvature="0" /><path
   style="fill:#ff0000;fill-opacity:0;stroke:#4700c9;stroke-width:0.42372882;stroke-opacity:0"
   d="M 42.02772,99.512436 C 31.809892,97.921428 20.466727,91.924665 13.556189,84.460458 -5.094517,64.31547 -4.6198812,33.63363 14.638157,14.518937 21.716764,7.4930182 30.348239,2.8456588 40,0.86360996 53.155267,-1.8379053 67.191983,1.0275536 78.446424,8.712072 c 4.139614,2.826524 10.315953,8.995217 12.878733,12.862794 7.265216,10.964165 10.110753,23.338642 8.232241,35.799778 C 95.395369,84.983496 69.680733,103.81826 42.02772,99.512436 Z M 69.983424,76.122881 C 69.816377,68.211928 69.660818,66.512992 68.884983,64.126102 67.704869,60.495407 65.206627,57.062767 62.274788,55.04353 l -2.355275,-1.622136 2.061309,-1.388169 c 4.080907,-2.748242 6.752085,-6.898344 7.886216,-12.252481 0.782051,-3.692005 0.787712,-5.588952 0.02737,-9.176366 C 67.727729,20.381372 58.996886,13.89229 48.512852,14.712814 37.417244,15.581203 29.862001,23.619286 29.72309,34.70339 c -0.09319,7.435911 2.70809,13.36022 8.060331,17.046449 l 2.312531,1.592703 -1.190821,0.849916 c -4.218331,3.01072 -6.907746,6.53555 -8.327485,10.914262 -0.710957,2.192708 -0.894302,4.157928 -1.06729,11.43989 l -0.208867,8.792373 h 20.438274 20.438271 z"
   id="path4524"
   inkscape:connector-curvature="0" /><path
   style="fill:#ff0000;fill-opacity:0;stroke:#4700c9;stroke-width:0.42372882;stroke-opacity:0"
   d="M 42.02772,99.512436 C 31.809892,97.921428 20.466727,91.924665 13.556189,84.460458 -5.094517,64.31547 -4.6198812,33.63363 14.638157,14.518937 21.716764,7.4930182 30.348239,2.8456588 40,0.86360996 53.155267,-1.8379053 67.191983,1.0275536 78.446424,8.712072 c 4.139614,2.826524 10.315953,8.995217 12.878733,12.862794 7.265216,10.964165 10.110753,23.338642 8.232241,35.799778 C 95.395369,84.983496 69.680733,103.81826 42.02772,99.512436 Z M 69.983424,76.122881 C 69.816377,68.211928 69.660818,66.512992 68.884983,64.126102 67.704869,60.495407 65.206627,57.062767 62.274788,55.04353 l -2.355275,-1.622136 2.061309,-1.388169 c 4.080907,-2.748242 6.752085,-6.898344 7.886216,-12.252481 0.782051,-3.692005 0.787712,-5.588952 0.02737,-9.176366 C 67.727729,20.381372 58.996886,13.89229 48.512852,14.712814 37.417244,15.581203 29.862001,23.619286 29.72309,34.70339 c -0.09319,7.435911 2.70809,13.36022 8.060331,17.046449 l 2.312531,1.592703 -1.190821,0.849916 c -4.218331,3.01072 -6.907746,6.53555 -8.327485,10.914262 -0.710957,2.192708 -0.894302,4.157928 -1.06729,11.43989 l -0.208867,8.792373 h 20.438274 20.438271 z"
   id="path4526"
   inkscape:connector-curvature="0" /><path
   style="fill:#4700c9;fill-opacity:0;stroke:#4700c9;stroke-width:0.42372882;stroke-opacity:0"
   d="M 42.02772,99.512436 C 31.809892,97.921428 20.466727,91.924665 13.556189,84.460458 -5.094517,64.31547 -4.6198812,33.63363 14.638157,14.518937 21.716764,7.4930182 30.348239,2.8456588 40,0.86360996 53.155267,-1.8379053 67.191983,1.0275536 78.446424,8.712072 c 4.139614,2.826524 10.315953,8.995217 12.878733,12.862794 7.265216,10.964165 10.110753,23.338642 8.232241,35.799778 C 95.395369,84.983496 69.680733,103.81826 42.02772,99.512436 Z M 69.983424,76.122881 C 69.816377,68.211928 69.660818,66.512992 68.884983,64.126102 67.704869,60.495407 65.206627,57.062767 62.274788,55.04353 l -2.355275,-1.622136 2.061309,-1.388169 c 4.080907,-2.748242 6.752085,-6.898344 7.886216,-12.252481 0.782051,-3.692005 0.787712,-5.588952 0.02737,-9.176366 C 67.727729,20.381372 58.996886,13.89229 48.512852,14.712814 37.417244,15.581203 29.862001,23.619286 29.72309,34.70339 c -0.09319,7.435911 2.70809,13.36022 8.060331,17.046449 l 2.312531,1.592703 -1.190821,0.849916 c -4.218331,3.01072 -6.907746,6.53555 -8.327485,10.914262 -0.710957,2.192708 -0.894302,4.157928 -1.06729,11.43989 l -0.208867,8.792373 h 20.438274 20.438271 z"
   id="path4528"
   inkscape:connector-curvature="0" /><path
   style="fill:#4700c9;fill-opacity:0;stroke:#4700c9;stroke-width:0.42372882;stroke-opacity:0"
   d="M 42.02772,99.512436 C 31.809892,97.921428 20.466727,91.924665 13.556189,84.460458 -5.094517,64.31547 -4.6198812,33.63363 14.638157,14.518937 21.716764,7.4930182 30.348239,2.8456588 40,0.86360996 53.155267,-1.8379053 67.191983,1.0275536 78.446424,8.712072 c 4.139614,2.826524 10.315953,8.995217 12.878733,12.862794 7.265216,10.964165 10.110753,23.338642 8.232241,35.799778 C 95.395369,84.983496 69.680733,103.81826 42.02772,99.512436 Z M 69.983424,76.122881 C 69.816377,68.211928 69.660818,66.512992 68.884983,64.126102 67.704869,60.495407 65.206627,57.062767 62.274788,55.04353 l -2.355275,-1.622136 2.061309,-1.388169 c 4.080907,-2.748242 6.752085,-6.898344 7.886216,-12.252481 0.782051,-3.692005 0.787712,-5.588952 0.02737,-9.176366 C 67.727729,20.381372 58.996886,13.89229 48.512852,14.712814 37.417244,15.581203 29.862001,23.619286 29.72309,34.70339 c -0.09319,7.435911 2.70809,13.36022 8.060331,17.046449 l 2.312531,1.592703 -1.190821,0.849916 c -4.218331,3.01072 -6.907746,6.53555 -8.327485,10.914262 -0.710957,2.192708 -0.894302,4.157928 -1.06729,11.43989 l -0.208867,8.792373 h 20.438274 20.438271 z"
   id="path4530"
   inkscape:connector-curvature="0" /><path
   style="fill:#4700c9;fill-opacity:0;stroke:#4700c9;stroke-width:0.42372882;stroke-opacity:0"
   d="M 42.02772,99.512436 C 31.809892,97.921428 20.466727,91.924665 13.556189,84.460458 -5.094517,64.31547 -4.6198812,33.63363 14.638157,14.518937 21.716764,7.4930182 30.348239,2.8456588 40,0.86360996 53.155267,-1.8379053 67.191983,1.0275536 78.446424,8.712072 c 4.139614,2.826524 10.315953,8.995217 12.878733,12.862794 7.265216,10.964165 10.110753,23.338642 8.232241,35.799778 C 95.395369,84.983496 69.680733,103.81826 42.02772,99.512436 Z M 69.983424,76.122881 C 69.816377,68.211928 69.660818,66.512992 68.884983,64.126102 67.704869,60.495407 65.206627,57.062767 62.274788,55.04353 l -2.355275,-1.622136 2.061309,-1.388169 c 4.080907,-2.748242 6.752085,-6.898344 7.886216,-12.252481 0.782051,-3.692005 0.787712,-5.588952 0.02737,-9.176366 C 67.727729,20.381372 58.996886,13.89229 48.512852,14.712814 37.417244,15.581203 29.862001,23.619286 29.72309,34.70339 c -0.09319,7.435911 2.70809,13.36022 8.060331,17.046449 l 2.312531,1.592703 -1.190821,0.849916 c -4.218331,3.01072 -6.907746,6.53555 -8.327485,10.914262 -0.710957,2.192708 -0.894302,4.157928 -1.06729,11.43989 l -0.208867,8.792373 h 20.438274 20.438271 z"
   id="path4532"
   inkscape:connector-curvature="0" /><path
   style="fill:#4700c9;fill-opacity:0;stroke:#4700c9;stroke-width:0.42372882;stroke-opacity:0"
   d="M 42.02772,99.512436 C 31.809892,97.921428 20.466727,91.924665 13.556189,84.460458 -5.094517,64.31547 -4.6198812,33.63363 14.638157,14.518937 21.716764,7.4930182 30.348239,2.8456588 40,0.86360996 53.155267,-1.8379053 67.191983,1.0275536 78.446424,8.712072 c 4.139614,2.826524 10.315953,8.995217 12.878733,12.862794 7.265216,10.964165 10.110753,23.338642 8.232241,35.799778 C 95.395369,84.983496 69.680733,103.81826 42.02772,99.512436 Z M 69.983424,76.122881 C 69.816377,68.211928 69.660818,66.512992 68.884983,64.126102 67.704869,60.495407 65.206627,57.062767 62.274788,55.04353 l -2.355275,-1.622136 2.061309,-1.388169 c 4.080907,-2.748242 6.752085,-6.898344 7.886216,-12.252481 0.782051,-3.692005 0.787712,-5.588952 0.02737,-9.176366 C 67.727729,20.381372 58.996886,13.89229 48.512852,14.712814 37.417244,15.581203 29.862001,23.619286 29.72309,34.70339 c -0.09319,7.435911 2.70809,13.36022 8.060331,17.046449 l 2.312531,1.592703 -1.190821,0.849916 c -4.218331,3.01072 -6.907746,6.53555 -8.327485,10.914262 -0.710957,2.192708 -0.894302,4.157928 -1.06729,11.43989 l -0.208867,8.792373 h 20.438274 20.438271 z"
   id="path4534"
   inkscape:connector-curvature="0" /><path
   style="fill:#4700c9;fill-opacity:0;stroke:#4700c9;stroke-width:0.42372882;stroke-opacity:0"
   d="M 42.02772,99.512436 C 31.809892,97.921428 20.466727,91.924665 13.556189,84.460458 -5.094517,64.31547 -4.6198812,33.63363 14.638157,14.518937 21.716764,7.4930182 30.348239,2.8456588 40,0.86360996 53.155267,-1.8379053 67.191983,1.0275536 78.446424,8.712072 c 4.139614,2.826524 10.315953,8.995217 12.878733,12.862794 7.265216,10.964165 10.110753,23.338642 8.232241,35.799778 C 95.395369,84.983496 69.680733,103.81826 42.02772,99.512436 Z M 69.983424,76.122881 C 69.816377,68.211928 69.660818,66.512992 68.884983,64.126102 67.704869,60.495407 65.206627,57.062767 62.274788,55.04353 l -2.355275,-1.622136 2.061309,-1.388169 c 4.080907,-2.748242 6.752085,-6.898344 7.886216,-12.252481 0.782051,-3.692005 0.787712,-5.588952 0.02737,-9.176366 C 67.727729,20.381372 58.996886,13.89229 48.512852,14.712814 37.417244,15.581203 29.862001,23.619286 29.72309,34.70339 c -0.09319,7.435911 2.70809,13.36022 8.060331,17.046449 l 2.312531,1.592703 -1.190821,0.849916 c -4.218331,3.01072 -6.907746,6.53555 -8.327485,10.914262 -0.710957,2.192708 -0.894302,4.157928 -1.06729,11.43989 l -0.208867,8.792373 h 20.438274 20.438271 z"
   id="path4536"
   inkscape:connector-curvature="0" /><path
   style="fill:#4700c9;fill-opacity:0;stroke:#4700c9;stroke-width:0.42372882;stroke-opacity:0"
   d="M 42.02772,99.512436 C 31.809892,97.921428 20.466727,91.924665 13.556189,84.460458 -5.094517,64.31547 -4.6198812,33.63363 14.638157,14.518937 21.716764,7.4930182 30.348239,2.8456588 40,0.86360996 53.155267,-1.8379053 67.191983,1.0275536 78.446424,8.712072 c 4.139614,2.826524 10.315953,8.995217 12.878733,12.862794 7.265216,10.964165 10.110753,23.338642 8.232241,35.799778 C 95.395369,84.983496 69.680733,103.81826 42.02772,99.512436 Z M 69.983424,76.122881 C 69.816377,68.211928 69.660818,66.512992 68.884983,64.126102 67.704869,60.495407 65.206627,57.062767 62.274788,55.04353 l -2.355275,-1.622136 2.061309,-1.388169 c 4.080907,-2.748242 6.752085,-6.898344 7.886216,-12.252481 0.782051,-3.692005 0.787712,-5.588952 0.02737,-9.176366 C 67.727729,20.381372 58.996886,13.89229 48.512852,14.712814 37.417244,15.581203 29.862001,23.619286 29.72309,34.70339 c -0.09319,7.435911 2.70809,13.36022 8.060331,17.046449 l 2.312531,1.592703 -1.190821,0.849916 c -4.218331,3.01072 -6.907746,6.53555 -8.327485,10.914262 -0.710957,2.192708 -0.894302,4.157928 -1.06729,11.43989 l -0.208867,8.792373 h 20.438274 20.438271 z"
   id="path4538"
   inkscape:connector-curvature="0" /><path
   style="fill:#4700c9;fill-opacity:0;stroke:#4700c9;stroke-width:0.42372882;stroke-opacity:0"
   d="M 42.02772,99.512436 C 31.809892,97.921428 20.466727,91.924665 13.556189,84.460458 -5.094517,64.31547 -4.6198812,33.63363 14.638157,14.518937 21.716764,7.4930182 30.348239,2.8456588 40,0.86360996 53.155267,-1.8379053 67.191983,1.0275536 78.446424,8.712072 c 4.139614,2.826524 10.315953,8.995217 12.878733,12.862794 7.265216,10.964165 10.110753,23.338642 8.232241,35.799778 C 95.395369,84.983496 69.680733,103.81826 42.02772,99.512436 Z M 69.983424,76.122881 C 69.816377,68.211928 69.660818,66.512992 68.884983,64.126102 67.704869,60.495407 65.206627,57.062767 62.274788,55.04353 l -2.355275,-1.622136 2.061309,-1.388169 c 4.080907,-2.748242 6.752085,-6.898344 7.886216,-12.252481 0.782051,-3.692005 0.787712,-5.588952 0.02737,-9.176366 C 67.727729,20.381372 58.996886,13.89229 48.512852,14.712814 37.417244,15.581203 29.862001,23.619286 29.72309,34.70339 c -0.09319,7.435911 2.70809,13.36022 8.060331,17.046449 l 2.312531,1.592703 -1.190821,0.849916 c -4.218331,3.01072 -6.907746,6.53555 -8.327485,10.914262 -0.710957,2.192708 -0.894302,4.157928 -1.06729,11.43989 l -0.208867,8.792373 h 20.438274 20.438271 z"
   id="path4540"
   inkscape:connector-curvature="0" /><path
   style="fill:#4700c9;fill-opacity:0;stroke:#4700c9;stroke-width:0.42372882;stroke-opacity:0"
   d="M 41.752394,99.06536 C 32.072988,97.442716 23.161193,92.932742 15.899775,85.982178 8.4222513,78.824758 4.028303,71.256267 1.6274184,61.398305 -2.4245736,44.760945 2.5774819,27.316746 14.947114,14.947114 32.735107,-2.8408792 60.255144,-4.6843119 80.254237,10.572509 c 3.33892,2.547181 8.801161,8.384915 11.081,11.842745 9.792263,14.851921 11.097783,32.850869 3.541615,48.82778 C 85.403576,91.27353 63.548831,102.71929 41.752394,99.06536 Z m 28.64767,-22.730614 c -0.21828,-9.820407 -0.543772,-11.858301 -2.510806,-15.720089 -1.040516,-2.042801 -3.810186,-5.074831 -5.706,-6.246504 l -1.442788,-0.891695 2.304284,-1.65006 C 70.993157,46.134669 73.204682,32.298524 67.569631,23.517055 63.217432,16.734741 55.179089,13.249834 46.728212,14.481562 c -10.448643,1.522905 -17.328063,9.63671 -17.35766,20.472172 -0.01122,4.110104 0.531563,6.787713 2.032026,10.024088 1.216209,2.623263 4.529118,6.387754 6.605608,7.506017 l 1.47074,0.792047 -2.42359,1.784144 c -2.949016,2.170945 -5.618033,6.025161 -6.839361,9.87644 -0.749903,2.364712 -0.930414,4.265522 -1.122681,11.822005 l -0.229104,9.004237 h 20.872717 20.872716 z"
   id="path4542"
   inkscape:connector-curvature="0" /><path
   style="fill:#4700c9;fill-opacity:0;stroke:#4700c9;stroke-width:0.42372882;stroke-opacity:0"
   d="M 41.752394,99.06536 C 32.072988,97.442716 23.161193,92.932742 15.899775,85.982178 8.4222513,78.824758 4.028303,71.256267 1.6274184,61.398305 -2.4245736,44.760945 2.5774819,27.316746 14.947114,14.947114 32.735107,-2.8408792 60.255144,-4.6843119 80.254237,10.572509 c 3.33892,2.547181 8.801161,8.384915 11.081,11.842745 9.792263,14.851921 11.097783,32.850869 3.541615,48.82778 C 85.403576,91.27353 63.548831,102.71929 41.752394,99.06536 Z m 28.64767,-22.730614 c -0.21828,-9.820407 -0.543772,-11.858301 -2.510806,-15.720089 -1.040516,-2.042801 -3.810186,-5.074831 -5.706,-6.246504 l -1.442788,-0.891695 2.304284,-1.65006 C 70.993157,46.134669 73.204682,32.298524 67.569631,23.517055 63.217432,16.734741 55.179089,13.249834 46.728212,14.481562 c -10.448643,1.522905 -17.328063,9.63671 -17.35766,20.472172 -0.01122,4.110104 0.531563,6.787713 2.032026,10.024088 1.216209,2.623263 4.529118,6.387754 6.605608,7.506017 l 1.47074,0.792047 -2.42359,1.784144 c -2.949016,2.170945 -5.618033,6.025161 -6.839361,9.87644 -0.749903,2.364712 -0.930414,4.265522 -1.122681,11.822005 l -0.229104,9.004237 h 20.872717 20.872716 z"
   id="path4544"
   inkscape:connector-curvature="0" /><path
   style="fill:#4700c9;fill-opacity:0;stroke:#4700c9;stroke-width:0.42372882;stroke-opacity:0"
   d="M 41.752394,99.06536 C 32.072988,97.442716 23.161193,92.932742 15.899775,85.982178 8.4222513,78.824758 4.028303,71.256267 1.6274184,61.398305 -2.4245736,44.760945 2.5774819,27.316746 14.947114,14.947114 32.735107,-2.8408792 60.255144,-4.6843119 80.254237,10.572509 c 3.33892,2.547181 8.801161,8.384915 11.081,11.842745 9.792263,14.851921 11.097783,32.850869 3.541615,48.82778 C 85.403576,91.27353 63.548831,102.71929 41.752394,99.06536 Z m 28.64767,-22.730614 c -0.21828,-9.820407 -0.543772,-11.858301 -2.510806,-15.720089 -1.040516,-2.042801 -3.810186,-5.074831 -5.706,-6.246504 l -1.442788,-0.891695 2.304284,-1.65006 C 70.993157,46.134669 73.204682,32.298524 67.569631,23.517055 63.217432,16.734741 55.179089,13.249834 46.728212,14.481562 c -10.448643,1.522905 -17.328063,9.63671 -17.35766,20.472172 -0.01122,4.110104 0.531563,6.787713 2.032026,10.024088 1.216209,2.623263 4.529118,6.387754 6.605608,7.506017 l 1.47074,0.792047 -2.42359,1.784144 c -2.949016,2.170945 -5.618033,6.025161 -6.839361,9.87644 -0.749903,2.364712 -0.930414,4.265522 -1.122681,11.822005 l -0.229104,9.004237 h 20.872717 20.872716 z"
   id="path4546"
   inkscape:connector-curvature="0" /><path
   style="fill:#4700c9;fill-opacity:0;stroke:#4700c9;stroke-width:0.42372882;stroke-opacity:0;fill-rule:evenodd"
   d="M 41.752394,99.06536 C 32.072988,97.442716 23.161193,92.932742 15.899775,85.982178 8.4222513,78.824758 4.028303,71.256267 1.6274184,61.398305 -2.4245736,44.760945 2.5774819,27.316746 14.947114,14.947114 32.735107,-2.8408792 60.255144,-4.6843119 80.254237,10.572509 c 3.33892,2.547181 8.801161,8.384915 11.081,11.842745 9.792263,14.851921 11.097783,32.850869 3.541615,48.82778 C 85.403576,91.27353 63.548831,102.71929 41.752394,99.06536 Z m 28.64767,-22.730614 c -0.21828,-9.820407 -0.543772,-11.858301 -2.510806,-15.720089 -1.040516,-2.042801 -3.810186,-5.074831 -5.706,-6.246504 l -1.442788,-0.891695 2.304284,-1.65006 C 70.993157,46.134669 73.204682,32.298524 67.569631,23.517055 63.217432,16.734741 55.179089,13.249834 46.728212,14.481562 c -10.448643,1.522905 -17.328063,9.63671 -17.35766,20.472172 -0.01122,4.110104 0.531563,6.787713 2.032026,10.024088 1.216209,2.623263 4.529118,6.387754 6.605608,7.506017 l 1.47074,0.792047 -2.42359,1.784144 c -2.949016,2.170945 -5.618033,6.025161 -6.839361,9.87644 -0.749903,2.364712 -0.930414,4.265522 -1.122681,11.822005 l -0.229104,9.004237 h 20.872717 20.872716 z"
   id="path4548"
   inkscape:connector-curvature="0" /><path
   style="fill:#4700c9;fill-opacity:0;fill-rule:nonzero;stroke:#4700c9;stroke-width:0.424;stroke-opacity:0;stroke-miterlimit:4;stroke-dasharray:none"
   d="M 41.752394,99.06536 C 32.072988,97.442716 23.161193,92.932742 15.899775,85.982178 8.4222513,78.824758 4.028303,71.256267 1.6274184,61.398305 -2.4245736,44.760945 2.5774819,27.316746 14.947114,14.947114 32.735107,-2.8408792 60.255144,-4.6843119 80.254237,10.572509 c 3.33892,2.547181 8.801161,8.384915 11.081,11.842745 9.792263,14.851921 11.097783,32.850869 3.541615,48.82778 C 85.403576,91.27353 63.548831,102.71929 41.752394,99.06536 Z m 28.64767,-22.730614 c -0.21828,-9.820407 -0.543772,-11.858301 -2.510806,-15.720089 -1.040516,-2.042801 -3.810186,-5.074831 -5.706,-6.246504 l -1.442788,-0.891695 2.304284,-1.65006 C 70.993157,46.134669 73.204682,32.298524 67.569631,23.517055 63.217432,16.734741 55.179089,13.249834 46.728212,14.481562 c -10.448643,1.522905 -17.328063,9.63671 -17.35766,20.472172 -0.01122,4.110104 0.531563,6.787713 2.032026,10.024088 1.216209,2.623263 4.529118,6.387754 6.605608,7.506017 l 1.47074,0.792047 -2.42359,1.784144 c -2.949016,2.170945 -5.618033,6.025161 -6.839361,9.87644 -0.749903,2.364712 -0.930414,4.265522 -1.122681,11.822005 l -0.229104,9.004237 h 20.872717 20.872716 z"
   id="path4550"
   inkscape:connector-curvature="0" /><path
   style="fill:#4700c9;fill-opacity:0;fill-rule:nonzero;stroke:#4700c9;stroke-width:0.17966102;stroke-miterlimit:4;stroke-dasharray:none;stroke-opacity:0"
   d="M 41.752394,99.06536 C 32.072988,97.442716 23.161193,92.932742 15.899775,85.982178 8.4222513,78.824758 4.028303,71.256267 1.6274184,61.398305 -2.4245736,44.760945 2.5774819,27.316746 14.947114,14.947114 32.735107,-2.8408792 60.255144,-4.6843119 80.254237,10.572509 c 3.33892,2.547181 8.801161,8.384915 11.081,11.842745 9.792263,14.851921 11.097783,32.850869 3.541615,48.82778 C 85.403576,91.27353 63.548831,102.71929 41.752394,99.06536 Z m 28.64767,-22.730614 c -0.21828,-9.820407 -0.543772,-11.858301 -2.510806,-15.720089 -1.040516,-2.042801 -3.810186,-5.074831 -5.706,-6.246504 l -1.442788,-0.891695 2.304284,-1.65006 C 70.993157,46.134669 73.204682,32.298524 67.569631,23.517055 63.217432,16.734741 55.179089,13.249834 46.728212,14.481562 c -10.448643,1.522905 -17.328063,9.63671 -17.35766,20.472172 -0.01122,4.110104 0.531563,6.787713 2.032026,10.024088 1.216209,2.623263 4.529118,6.387754 6.605608,7.506017 l 1.47074,0.792047 -2.42359,1.784144 c -2.949016,2.170945 -5.618033,6.025161 -6.839361,9.87644 -0.749903,2.364712 -0.930414,4.265522 -1.122681,11.822005 l -0.229104,9.004237 h 20.872717 20.872716 z"
   id="path4552"
   inkscape:connector-curvature="0" /><path
   style="fill:#4700c9;fill-opacity:0;fill-rule:nonzero;stroke:#4700c9;stroke-width:0.17966102;stroke-miterlimit:4;stroke-dasharray:none;stroke-opacity:0"
   d="M 41.752394,99.06536 C 32.072988,97.442716 23.161193,92.932742 15.899775,85.982178 8.4222513,78.824758 4.028303,71.256267 1.6274184,61.398305 -2.4245736,44.760945 2.5774819,27.316746 14.947114,14.947114 32.735107,-2.8408792 60.255144,-4.6843119 80.254237,10.572509 c 3.33892,2.547181 8.801161,8.384915 11.081,11.842745 9.792263,14.851921 11.097783,32.850869 3.541615,48.82778 C 85.403576,91.27353 63.548831,102.71929 41.752394,99.06536 Z m 28.64767,-22.730614 c -0.21828,-9.820407 -0.543772,-11.858301 -2.510806,-15.720089 -1.040516,-2.042801 -3.810186,-5.074831 -5.706,-6.246504 l -1.442788,-0.891695 2.304284,-1.65006 C 70.993157,46.134669 73.204682,32.298524 67.569631,23.517055 63.217432,16.734741 55.179089,13.249834 46.728212,14.481562 c -10.448643,1.522905 -17.328063,9.63671 -17.35766,20.472172 -0.01122,4.110104 0.531563,6.787713 2.032026,10.024088 1.216209,2.623263 4.529118,6.387754 6.605608,7.506017 l 1.47074,0.792047 -2.42359,1.784144 c -2.949016,2.170945 -5.618033,6.025161 -6.839361,9.87644 -0.749903,2.364712 -0.930414,4.265522 -1.122681,11.822005 l -0.229104,9.004237 h 20.872717 20.872716 z"
   id="path4554"
   inkscape:connector-curvature="0" /><path
   style="fill:#4700c9;fill-opacity:0;fill-rule:nonzero;stroke:#4700c9;stroke-width:0.17966102;stroke-miterlimit:4;stroke-dasharray:none;stroke-opacity:0"
   d="M 41.752394,99.06536 C 32.072988,97.442716 23.161193,92.932742 15.899775,85.982178 8.4222513,78.824758 4.028303,71.256267 1.6274184,61.398305 -2.4245736,44.760945 2.5774819,27.316746 14.947114,14.947114 32.735107,-2.8408792 60.255144,-4.6843119 80.254237,10.572509 c 3.33892,2.547181 8.801161,8.384915 11.081,11.842745 9.792263,14.851921 11.097783,32.850869 3.541615,48.82778 C 85.403576,91.27353 63.548831,102.71929 41.752394,99.06536 Z m 28.64767,-22.730614 c -0.21828,-9.820407 -0.543772,-11.858301 -2.510806,-15.720089 -1.040516,-2.042801 -3.810186,-5.074831 -5.706,-6.246504 l -1.442788,-0.891695 2.304284,-1.65006 C 70.993157,46.134669 73.204682,32.298524 67.569631,23.517055 63.217432,16.734741 55.179089,13.249834 46.728212,14.481562 c -10.448643,1.522905 -17.328063,9.63671 -17.35766,20.472172 -0.01122,4.110104 0.531563,6.787713 2.032026,10.024088 1.216209,2.623263 4.529118,6.387754 6.605608,7.506017 l 1.47074,0.792047 -2.42359,1.784144 c -2.949016,2.170945 -5.618033,6.025161 -6.839361,9.87644 -0.749903,2.364712 -0.930414,4.265522 -1.122681,11.822005 l -0.229104,9.004237 h 20.872717 20.872716 z"
   id="path4556"
   inkscape:connector-curvature="0" /><path
   style="fill:#4700c9;fill-opacity:0;fill-rule:nonzero;stroke:#4700c9;stroke-width:0.17966102;stroke-miterlimit:4;stroke-dasharray:none;stroke-opacity:0"
   d="M 41.752394,99.06536 C 32.072988,97.442716 23.161193,92.932742 15.899775,85.982178 8.4222513,78.824758 4.028303,71.256267 1.6274184,61.398305 -2.4245736,44.760945 2.5774819,27.316746 14.947114,14.947114 32.735107,-2.8408792 60.255144,-4.6843119 80.254237,10.572509 c 3.33892,2.547181 8.801161,8.384915 11.081,11.842745 9.792263,14.851921 11.097783,32.850869 3.541615,48.82778 C 85.403576,91.27353 63.548831,102.71929 41.752394,99.06536 Z m 28.64767,-22.730614 c -0.21828,-9.820407 -0.543772,-11.858301 -2.510806,-15.720089 -1.040516,-2.042801 -3.810186,-5.074831 -5.706,-6.246504 l -1.442788,-0.891695 2.304284,-1.65006 C 70.993157,46.134669 73.204682,32.298524 67.569631,23.517055 63.217432,16.734741 55.179089,13.249834 46.728212,14.481562 c -10.448643,1.522905 -17.328063,9.63671 -17.35766,20.472172 -0.01122,4.110104 0.531563,6.787713 2.032026,10.024088 1.216209,2.623263 4.529118,6.387754 6.605608,7.506017 l 1.47074,0.792047 -2.42359,1.784144 c -2.949016,2.170945 -5.618033,6.025161 -6.839361,9.87644 -0.749903,2.364712 -0.930414,4.265522 -1.122681,11.822005 l -0.229104,9.004237 h 20.872717 20.872716 z"
   id="path4558"
   inkscape:connector-curvature="0" /><path
   style="fill:#4700c9;fill-opacity:0;fill-rule:nonzero;stroke:#4700c9;stroke-width:0.17966102;stroke-miterlimit:4;stroke-dasharray:none;stroke-opacity:0"
   d="M 41.752394,99.06536 C 32.072988,97.442716 23.161193,92.932742 15.899775,85.982178 8.4222513,78.824758 4.028303,71.256267 1.6274184,61.398305 -2.4245736,44.760945 2.5774819,27.316746 14.947114,14.947114 32.735107,-2.8408792 60.255144,-4.6843119 80.254237,10.572509 c 3.33892,2.547181 8.801161,8.384915 11.081,11.842745 9.792263,14.851921 11.097783,32.850869 3.541615,48.82778 C 85.403576,91.27353 63.548831,102.71929 41.752394,99.06536 Z m 28.64767,-22.730614 c -0.21828,-9.820407 -0.543772,-11.858301 -2.510806,-15.720089 -1.040516,-2.042801 -3.810186,-5.074831 -5.706,-6.246504 l -1.442788,-0.891695 2.304284,-1.65006 C 70.993157,46.134669 73.204682,32.298524 67.569631,23.517055 63.217432,16.734741 55.179089,13.249834 46.728212,14.481562 c -10.448643,1.522905 -17.328063,9.63671 -17.35766,20.472172 -0.01122,4.110104 0.531563,6.787713 2.032026,10.024088 1.216209,2.623263 4.529118,6.387754 6.605608,7.506017 l 1.47074,0.792047 -2.42359,1.784144 c -2.949016,2.170945 -5.618033,6.025161 -6.839361,9.87644 -0.749903,2.364712 -0.930414,4.265522 -1.122681,11.822005 l -0.229104,9.004237 h 20.872717 20.872716 z"
   id="path4560"
   inkscape:connector-curvature="0" /><path
   style="fill:#4700c9;fill-opacity:0;fill-rule:nonzero;stroke:#4700c9;stroke-width:0.17966102;stroke-miterlimit:4;stroke-dasharray:none;stroke-opacity:0"
   d="M 41.752394,99.06536 C 32.072988,97.442716 23.161193,92.932742 15.899775,85.982178 8.4222513,78.824758 4.028303,71.256267 1.6274184,61.398305 -2.4245736,44.760945 2.5774819,27.316746 14.947114,14.947114 32.735107,-2.8408792 60.255144,-4.6843119 80.254237,10.572509 c 3.33892,2.547181 8.801161,8.384915 11.081,11.842745 9.792263,14.851921 11.097783,32.850869 3.541615,48.82778 C 85.403576,91.27353 63.548831,102.71929 41.752394,99.06536 Z m 28.64767,-22.730614 c -0.21828,-9.820407 -0.543772,-11.858301 -2.510806,-15.720089 -1.040516,-2.042801 -3.810186,-5.074831 -5.706,-6.246504 l -1.442788,-0.891695 2.304284,-1.65006 C 70.993157,46.134669 73.204682,32.298524 67.569631,23.517055 63.217432,16.734741 55.179089,13.249834 46.728212,14.481562 c -10.448643,1.522905 -17.328063,9.63671 -17.35766,20.472172 -0.01122,4.110104 0.531563,6.787713 2.032026,10.024088 1.216209,2.623263 4.529118,6.387754 6.605608,7.506017 l 1.47074,0.792047 -2.42359,1.784144 c -2.949016,2.170945 -5.618033,6.025161 -6.839361,9.87644 -0.749903,2.364712 -0.930414,4.265522 -1.122681,11.822005 l -0.229104,9.004237 h 20.872717 20.872716 z"
   id="path4562"
   inkscape:connector-curvature="0" /><path
   style="fill:#4700c9;fill-opacity:0;fill-rule:nonzero;stroke:#4700c9;stroke-width:0.17966102;stroke-miterlimit:4;stroke-dasharray:none;stroke-opacity:0"
   d="M 41.752394,99.06536 C 32.072988,97.442716 23.161193,92.932742 15.899775,85.982178 8.4222513,78.824758 4.028303,71.256267 1.6274184,61.398305 -2.4245736,44.760945 2.5774819,27.316746 14.947114,14.947114 32.735107,-2.8408792 60.255144,-4.6843119 80.254237,10.572509 c 3.33892,2.547181 8.801161,8.384915 11.081,11.842745 9.792263,14.851921 11.097783,32.850869 3.541615,48.82778 C 85.403576,91.27353 63.548831,102.71929 41.752394,99.06536 Z m 28.64767,-22.730614 c -0.21828,-9.820407 -0.543772,-11.858301 -2.510806,-15.720089 -1.040516,-2.042801 -3.810186,-5.074831 -5.706,-6.246504 l -1.442788,-0.891695 2.304284,-1.65006 C 70.993157,46.134669 73.204682,32.298524 67.569631,23.517055 63.217432,16.734741 55.179089,13.249834 46.728212,14.481562 c -10.448643,1.522905 -17.328063,9.63671 -17.35766,20.472172 -0.01122,4.110104 0.531563,6.787713 2.032026,10.024088 1.216209,2.623263 4.529118,6.387754 6.605608,7.506017 l 1.47074,0.792047 -2.42359,1.784144 c -2.949016,2.170945 -5.618033,6.025161 -6.839361,9.87644 -0.749903,2.364712 -0.930414,4.265522 -1.122681,11.822005 l -0.229104,9.004237 h 20.872717 20.872716 z"
   id="path4564"
   inkscape:connector-curvature="0" /><path
   style="fill:#4700c9;fill-opacity:0;fill-rule:nonzero;stroke:#4700c9;stroke-width:0.17966102;stroke-miterlimit:4;stroke-dasharray:none;stroke-opacity:0"
   d="M 41.752394,99.06536 C 32.072988,97.442716 23.161193,92.932742 15.899775,85.982178 8.4222513,78.824758 4.028303,71.256267 1.6274184,61.398305 -2.4245736,44.760945 2.5774819,27.316746 14.947114,14.947114 32.735107,-2.8408792 60.255144,-4.6843119 80.254237,10.572509 c 3.33892,2.547181 8.801161,8.384915 11.081,11.842745 9.792263,14.851921 11.097783,32.850869 3.541615,48.82778 C 85.403576,91.27353 63.548831,102.71929 41.752394,99.06536 Z m 28.64767,-22.730614 c -0.21828,-9.820407 -0.543772,-11.858301 -2.510806,-15.720089 -1.040516,-2.042801 -3.810186,-5.074831 -5.706,-6.246504 l -1.442788,-0.891695 2.304284,-1.65006 C 70.993157,46.134669 73.204682,32.298524 67.569631,23.517055 63.217432,16.734741 55.179089,13.249834 46.728212,14.481562 c -10.448643,1.522905 -17.328063,9.63671 -17.35766,20.472172 -0.01122,4.110104 0.531563,6.787713 2.032026,10.024088 1.216209,2.623263 4.529118,6.387754 6.605608,7.506017 l 1.47074,0.792047 -2.42359,1.784144 c -2.949016,2.170945 -5.618033,6.025161 -6.839361,9.87644 -0.749903,2.364712 -0.930414,4.265522 -1.122681,11.822005 l -0.229104,9.004237 h 20.872717 20.872716 z"
   id="path4566"
   inkscape:connector-curvature="0" /><path
   style="fill:#4700c9;fill-opacity:0;fill-rule:nonzero;stroke:#4700c9;stroke-width:0.17966102;stroke-miterlimit:4;stroke-dasharray:none;stroke-opacity:0"
   d="M 41.752394,99.06536 C 32.072988,97.442716 23.161193,92.932742 15.899775,85.982178 8.4222513,78.824758 4.028303,71.256267 1.6274184,61.398305 -2.4245736,44.760945 2.5774819,27.316746 14.947114,14.947114 32.735107,-2.8408792 60.255144,-4.6843119 80.254237,10.572509 c 3.33892,2.547181 8.801161,8.384915 11.081,11.842745 9.792263,14.851921 11.097783,32.850869 3.541615,48.82778 C 85.403576,91.27353 63.548831,102.71929 41.752394,99.06536 Z m 28.64767,-22.730614 c -0.21828,-9.820407 -0.543772,-11.858301 -2.510806,-15.720089 -1.040516,-2.042801 -3.810186,-5.074831 -5.706,-6.246504 l -1.442788,-0.891695 2.304284,-1.65006 C 70.993157,46.134669 73.204682,32.298524 67.569631,23.517055 63.217432,16.734741 55.179089,13.249834 46.728212,14.481562 c -10.448643,1.522905 -17.328063,9.63671 -17.35766,20.472172 -0.01122,4.110104 0.531563,6.787713 2.032026,10.024088 1.216209,2.623263 4.529118,6.387754 6.605608,7.506017 l 1.47074,0.792047 -2.42359,1.784144 c -2.949016,2.170945 -5.618033,6.025161 -6.839361,9.87644 -0.749903,2.364712 -0.930414,4.265522 -1.122681,11.822005 l -0.229104,9.004237 h 20.872717 20.872716 z"
   id="path4568"
   inkscape:connector-curvature="0" /><path
   style="fill:#4700c9;fill-opacity:0;fill-rule:nonzero;stroke:#4700c9;stroke-width:0.17966102;stroke-miterlimit:4;stroke-dasharray:none;stroke-opacity:0"
   d="M 41.752394,99.06536 C 32.072988,97.442716 23.161193,92.932742 15.899775,85.982178 8.4222513,78.824758 4.028303,71.256267 1.6274184,61.398305 -2.4245736,44.760945 2.5774819,27.316746 14.947114,14.947114 32.735107,-2.8408792 60.255144,-4.6843119 80.254237,10.572509 c 3.33892,2.547181 8.801161,8.384915 11.081,11.842745 9.792263,14.851921 11.097783,32.850869 3.541615,48.82778 C 85.403576,91.27353 63.548831,102.71929 41.752394,99.06536 Z m 28.64767,-22.730614 c -0.21828,-9.820407 -0.543772,-11.858301 -2.510806,-15.720089 -1.040516,-2.042801 -3.810186,-5.074831 -5.706,-6.246504 l -1.442788,-0.891695 2.304284,-1.65006 C 70.993157,46.134669 73.204682,32.298524 67.569631,23.517055 63.217432,16.734741 55.179089,13.249834 46.728212,14.481562 c -10.448643,1.522905 -17.328063,9.63671 -17.35766,20.472172 -0.01122,4.110104 0.531563,6.787713 2.032026,10.024088 1.216209,2.623263 4.529118,6.387754 6.605608,7.506017 l 1.47074,0.792047 -2.42359,1.784144 c -2.949016,2.170945 -5.618033,6.025161 -6.839361,9.87644 -0.749903,2.364712 -0.930414,4.265522 -1.122681,11.822005 l -0.229104,9.004237 h 20.872717 20.872716 z"
   id="path4570"
   inkscape:connector-curvature="0" /><path
   style="fill:#4700c9;fill-opacity:0;fill-rule:nonzero;stroke:#4700c9;stroke-width:0.17966102;stroke-miterlimit:4;stroke-dasharray:none;stroke-opacity:0"
   d="M 41.752394,99.06536 C 32.072988,97.442716 23.161193,92.932742 15.899775,85.982178 8.4222513,78.824758 4.028303,71.256267 1.6274184,61.398305 -2.4245736,44.760945 2.5774819,27.316746 14.947114,14.947114 32.735107,-2.8408792 60.255144,-4.6843119 80.254237,10.572509 c 3.33892,2.547181 8.801161,8.384915 11.081,11.842745 9.792263,14.851921 11.097783,32.850869 3.541615,48.82778 C 85.403576,91.27353 63.548831,102.71929 41.752394,99.06536 Z m 28.64767,-22.730614 c -0.21828,-9.820407 -0.543772,-11.858301 -2.510806,-15.720089 -1.040516,-2.042801 -3.810186,-5.074831 -5.706,-6.246504 l -1.442788,-0.891695 2.304284,-1.65006 C 70.993157,46.134669 73.204682,32.298524 67.569631,23.517055 63.217432,16.734741 55.179089,13.249834 46.728212,14.481562 c -10.448643,1.522905 -17.328063,9.63671 -17.35766,20.472172 -0.01122,4.110104 0.531563,6.787713 2.032026,10.024088 1.216209,2.623263 4.529118,6.387754 6.605608,7.506017 l 1.47074,0.792047 -2.42359,1.784144 c -2.949016,2.170945 -5.618033,6.025161 -6.839361,9.87644 -0.749903,2.364712 -0.930414,4.265522 -1.122681,11.822005 l -0.229104,9.004237 h 20.872717 20.872716 z"
   id="path4572"
   inkscape:connector-curvature="0" /><path
   style="fill:#4700c9;fill-opacity:0;fill-rule:nonzero;stroke:#4700c9;stroke-width:0.17966102;stroke-miterlimit:4;stroke-dasharray:none;stroke-opacity:0"
   d="M 41.752394,99.06536 C 32.072988,97.442716 23.161193,92.932742 15.899775,85.982178 8.4222513,78.824758 4.028303,71.256267 1.6274184,61.398305 -2.4245736,44.760945 2.5774819,27.316746 14.947114,14.947114 32.735107,-2.8408792 60.255144,-4.6843119 80.254237,10.572509 c 3.33892,2.547181 8.801161,8.384915 11.081,11.842745 9.792263,14.851921 11.097783,32.850869 3.541615,48.82778 C 85.403576,91.27353 63.548831,102.71929 41.752394,99.06536 Z m 28.64767,-22.730614 c -0.21828,-9.820407 -0.543772,-11.858301 -2.510806,-15.720089 -1.040516,-2.042801 -3.810186,-5.074831 -5.706,-6.246504 l -1.442788,-0.891695 2.304284,-1.65006 C 70.993157,46.134669 73.204682,32.298524 67.569631,23.517055 63.217432,16.734741 55.179089,13.249834 46.728212,14.481562 c -10.448643,1.522905 -17.328063,9.63671 -17.35766,20.472172 -0.01122,4.110104 0.531563,6.787713 2.032026,10.024088 1.216209,2.623263 4.529118,6.387754 6.605608,7.506017 l 1.47074,0.792047 -2.42359,1.784144 c -2.949016,2.170945 -5.618033,6.025161 -6.839361,9.87644 -0.749903,2.364712 -0.930414,4.265522 -1.122681,11.822005 l -0.229104,9.004237 h 20.872717 20.872716 z"
   id="path4574"
   inkscape:connector-curvature="0" /><path
   style="fill:#4700c9;fill-opacity:0;fill-rule:nonzero;stroke:#4700c9;stroke-width:0.17966102;stroke-miterlimit:4;stroke-dasharray:none;stroke-opacity:0"
   d="M 41.752394,99.06536 C 32.072988,97.442716 23.161193,92.932742 15.899775,85.982178 8.4222513,78.824758 4.028303,71.256267 1.6274184,61.398305 -2.4245736,44.760945 2.5774819,27.316746 14.947114,14.947114 32.735107,-2.8408792 60.255144,-4.6843119 80.254237,10.572509 c 3.33892,2.547181 8.801161,8.384915 11.081,11.842745 9.792263,14.851921 11.097783,32.850869 3.541615,48.82778 C 85.403576,91.27353 63.548831,102.71929 41.752394,99.06536 Z m 28.64767,-22.730614 c -0.21828,-9.820407 -0.543772,-11.858301 -2.510806,-15.720089 -1.040516,-2.042801 -3.810186,-5.074831 -5.706,-6.246504 l -1.442788,-0.891695 2.304284,-1.65006 C 70.993157,46.134669 73.204682,32.298524 67.569631,23.517055 63.217432,16.734741 55.179089,13.249834 46.728212,14.481562 c -10.448643,1.522905 -17.328063,9.63671 -17.35766,20.472172 -0.01122,4.110104 0.531563,6.787713 2.032026,10.024088 1.216209,2.623263 4.529118,6.387754 6.605608,7.506017 l 1.47074,0.792047 -2.42359,1.784144 c -2.949016,2.170945 -5.618033,6.025161 -6.839361,9.87644 -0.749903,2.364712 -0.930414,4.265522 -1.122681,11.822005 l -0.229104,9.004237 h 20.872717 20.872716 z"
   id="path4576"
   inkscape:connector-curvature="0" /><path
   style="fill:#4700c9;fill-opacity:0;fill-rule:nonzero;stroke:#4700c9;stroke-width:0.17966102;stroke-miterlimit:4;stroke-dasharray:none;stroke-opacity:0"
   d="M 41.752394,99.06536 C 32.072988,97.442716 23.161193,92.932742 15.899775,85.982178 8.4222513,78.824758 4.028303,71.256267 1.6274184,61.398305 -2.4245736,44.760945 2.5774819,27.316746 14.947114,14.947114 32.735107,-2.8408792 60.255144,-4.6843119 80.254237,10.572509 c 3.33892,2.547181 8.801161,8.384915 11.081,11.842745 9.792263,14.851921 11.097783,32.850869 3.541615,48.82778 C 85.403576,91.27353 63.548831,102.71929 41.752394,99.06536 Z m 28.64767,-22.730614 c -0.21828,-9.820407 -0.543772,-11.858301 -2.510806,-15.720089 -1.040516,-2.042801 -3.810186,-5.074831 -5.706,-6.246504 l -1.442788,-0.891695 2.304284,-1.65006 C 70.993157,46.134669 73.204682,32.298524 67.569631,23.517055 63.217432,16.734741 55.179089,13.249834 46.728212,14.481562 c -10.448643,1.522905 -17.328063,9.63671 -17.35766,20.472172 -0.01122,4.110104 0.531563,6.787713 2.032026,10.024088 1.216209,2.623263 4.529118,6.387754 6.605608,7.506017 l 1.47074,0.792047 -2.42359,1.784144 c -2.949016,2.170945 -5.618033,6.025161 -6.839361,9.87644 -0.749903,2.364712 -0.930414,4.265522 -1.122681,11.822005 l -0.229104,9.004237 h 20.872717 20.872716 z"
   id="path4578"
   inkscape:connector-curvature="0" /><path
   style="fill:#4700c9;fill-opacity:0;fill-rule:nonzero;stroke:#4700c9;stroke-width:0.17966102;stroke-miterlimit:4;stroke-dasharray:none;stroke-opacity:0"
   d="M 41.752394,99.06536 C 32.072988,97.442716 23.161193,92.932742 15.899775,85.982178 8.4222513,78.824758 4.028303,71.256267 1.6274184,61.398305 -2.4245736,44.760945 2.5774819,27.316746 14.947114,14.947114 32.735107,-2.8408792 60.255144,-4.6843119 80.254237,10.572509 c 3.33892,2.547181 8.801161,8.384915 11.081,11.842745 9.792263,14.851921 11.097783,32.850869 3.541615,48.82778 C 85.403576,91.27353 63.548831,102.71929 41.752394,99.06536 Z m 28.64767,-22.730614 c -0.21828,-9.820407 -0.543772,-11.858301 -2.510806,-15.720089 -1.040516,-2.042801 -3.810186,-5.074831 -5.706,-6.246504 l -1.442788,-0.891695 2.304284,-1.65006 C 70.993157,46.134669 73.204682,32.298524 67.569631,23.517055 63.217432,16.734741 55.179089,13.249834 46.728212,14.481562 c -10.448643,1.522905 -17.328063,9.63671 -17.35766,20.472172 -0.01122,4.110104 0.531563,6.787713 2.032026,10.024088 1.216209,2.623263 4.529118,6.387754 6.605608,7.506017 l 1.47074,0.792047 -2.42359,1.784144 c -2.949016,2.170945 -5.618033,6.025161 -6.839361,9.87644 -0.749903,2.364712 -0.930414,4.265522 -1.122681,11.822005 l -0.229104,9.004237 h 20.872717 20.872716 z"
   id="path4580"
   inkscape:connector-curvature="0" /><path
   style="fill:#4700c9;fill-opacity:0;fill-rule:nonzero;stroke:#4700c9;stroke-width:0.17966102;stroke-miterlimit:4;stroke-dasharray:none;stroke-opacity:0"
   d="M 41.752394,99.06536 C 32.072988,97.442716 23.161193,92.932742 15.899775,85.982178 8.4222513,78.824758 4.028303,71.256267 1.6274184,61.398305 -2.4245736,44.760945 2.5774819,27.316746 14.947114,14.947114 32.735107,-2.8408792 60.255144,-4.6843119 80.254237,10.572509 c 3.33892,2.547181 8.801161,8.384915 11.081,11.842745 9.792263,14.851921 11.097783,32.850869 3.541615,48.82778 C 85.403576,91.27353 63.548831,102.71929 41.752394,99.06536 Z m 28.64767,-22.730614 c -0.21828,-9.820407 -0.543772,-11.858301 -2.510806,-15.720089 -1.040516,-2.042801 -3.810186,-5.074831 -5.706,-6.246504 l -1.442788,-0.891695 2.304284,-1.65006 C 70.993157,46.134669 73.204682,32.298524 67.569631,23.517055 63.217432,16.734741 55.179089,13.249834 46.728212,14.481562 c -10.448643,1.522905 -17.328063,9.63671 -17.35766,20.472172 -0.01122,4.110104 0.531563,6.787713 2.032026,10.024088 1.216209,2.623263 4.529118,6.387754 6.605608,7.506017 l 1.47074,0.792047 -2.42359,1.784144 c -2.949016,2.170945 -5.618033,6.025161 -6.839361,9.87644 -0.749903,2.364712 -0.930414,4.265522 -1.122681,11.822005 l -0.229104,9.004237 h 20.872717 20.872716 z"
   id="path4582"
   inkscape:connector-curvature="0" /><path
   style="fill:#4700c9;fill-opacity:0;fill-rule:nonzero;stroke:#4700c9;stroke-width:0.17966102;stroke-miterlimit:4;stroke-dasharray:none;stroke-opacity:0"
   d="M 41.752394,99.06536 C 32.072988,97.442716 23.161193,92.932742 15.899775,85.982178 8.4222513,78.824758 4.028303,71.256267 1.6274184,61.398305 -2.4245736,44.760945 2.5774819,27.316746 14.947114,14.947114 32.735107,-2.8408792 60.255144,-4.6843119 80.254237,10.572509 c 3.33892,2.547181 8.801161,8.384915 11.081,11.842745 9.792263,14.851921 11.097783,32.850869 3.541615,48.82778 C 85.403576,91.27353 63.548831,102.71929 41.752394,99.06536 Z m 28.64767,-22.730614 c -0.21828,-9.820407 -0.543772,-11.858301 -2.510806,-15.720089 -1.040516,-2.042801 -3.810186,-5.074831 -5.706,-6.246504 l -1.442788,-0.891695 2.304284,-1.65006 C 70.993157,46.134669 73.204682,32.298524 67.569631,23.517055 63.217432,16.734741 55.179089,13.249834 46.728212,14.481562 c -10.448643,1.522905 -17.328063,9.63671 -17.35766,20.472172 -0.01122,4.110104 0.531563,6.787713 2.032026,10.024088 1.216209,2.623263 4.529118,6.387754 6.605608,7.506017 l 1.47074,0.792047 -2.42359,1.784144 c -2.949016,2.170945 -5.618033,6.025161 -6.839361,9.87644 -0.749903,2.364712 -0.930414,4.265522 -1.122681,11.822005 l -0.229104,9.004237 h 20.872717 20.872716 z"
   id="path4584"
   inkscape:connector-curvature="0" /><path
   style="fill:#4700c9;fill-opacity:0;fill-rule:nonzero;stroke:#4700c9;stroke-width:0.17966102;stroke-miterlimit:4;stroke-dasharray:none;stroke-opacity:0"
   d="M 41.752394,99.06536 C 32.072988,97.442716 23.161193,92.932742 15.899775,85.982178 8.4222513,78.824758 4.028303,71.256267 1.6274184,61.398305 -2.4245736,44.760945 2.5774819,27.316746 14.947114,14.947114 32.735107,-2.8408792 60.255144,-4.6843119 80.254237,10.572509 c 3.33892,2.547181 8.801161,8.384915 11.081,11.842745 9.792263,14.851921 11.097783,32.850869 3.541615,48.82778 C 85.403576,91.27353 63.548831,102.71929 41.752394,99.06536 Z m 28.64767,-22.730614 c -0.21828,-9.820407 -0.543772,-11.858301 -2.510806,-15.720089 -1.040516,-2.042801 -3.810186,-5.074831 -5.706,-6.246504 l -1.442788,-0.891695 2.304284,-1.65006 C 70.993157,46.134669 73.204682,32.298524 67.569631,23.517055 63.217432,16.734741 55.179089,13.249834 46.728212,14.481562 c -10.448643,1.522905 -17.328063,9.63671 -17.35766,20.472172 -0.01122,4.110104 0.531563,6.787713 2.032026,10.024088 1.216209,2.623263 4.529118,6.387754 6.605608,7.506017 l 1.47074,0.792047 -2.42359,1.784144 c -2.949016,2.170945 -5.618033,6.025161 -6.839361,9.87644 -0.749903,2.364712 -0.930414,4.265522 -1.122681,11.822005 l -0.229104,9.004237 h 20.872717 20.872716 z"
   id="path4586"
   inkscape:connector-curvature="0" /><path
   style="fill:#4700c9;fill-opacity:0;fill-rule:nonzero;stroke:#4700c9;stroke-width:0.17966102;stroke-miterlimit:4;stroke-dasharray:none;stroke-opacity:0"
   d="M 41.752394,99.06536 C 32.072988,97.442716 23.161193,92.932742 15.899775,85.982178 8.4222513,78.824758 4.028303,71.256267 1.6274184,61.398305 -2.4245736,44.760945 2.5774819,27.316746 14.947114,14.947114 32.735107,-2.8408792 60.255144,-4.6843119 80.254237,10.572509 c 3.33892,2.547181 8.801161,8.384915 11.081,11.842745 9.792263,14.851921 11.097783,32.850869 3.541615,48.82778 C 85.403576,91.27353 63.548831,102.71929 41.752394,99.06536 Z m 28.64767,-22.730614 c -0.21828,-9.820407 -0.543772,-11.858301 -2.510806,-15.720089 -1.040516,-2.042801 -3.810186,-5.074831 -5.706,-6.246504 l -1.442788,-0.891695 2.304284,-1.65006 C 70.993157,46.134669 73.204682,32.298524 67.569631,23.517055 63.217432,16.734741 55.179089,13.249834 46.728212,14.481562 c -10.448643,1.522905 -17.328063,9.63671 -17.35766,20.472172 -0.01122,4.110104 0.531563,6.787713 2.032026,10.024088 1.216209,2.623263 4.529118,6.387754 6.605608,7.506017 l 1.47074,0.792047 -2.42359,1.784144 c -2.949016,2.170945 -5.618033,6.025161 -6.839361,9.87644 -0.749903,2.364712 -0.930414,4.265522 -1.122681,11.822005 l -0.229104,9.004237 h 20.872717 20.872716 z"
   id="path4588"
   inkscape:connector-curvature="0" /><path
   style="fill:#4700c9;fill-opacity:0;fill-rule:nonzero;stroke:#4700c9;stroke-width:0.17966102;stroke-miterlimit:4;stroke-dasharray:none;stroke-opacity:0"
   d="M 41.752394,99.06536 C 32.072988,97.442716 23.161193,92.932742 15.899775,85.982178 8.4222513,78.824758 4.028303,71.256267 1.6274184,61.398305 -2.4245736,44.760945 2.5774819,27.316746 14.947114,14.947114 32.735107,-2.8408792 60.255144,-4.6843119 80.254237,10.572509 c 3.33892,2.547181 8.801161,8.384915 11.081,11.842745 9.792263,14.851921 11.097783,32.850869 3.541615,48.82778 C 85.403576,91.27353 63.548831,102.71929 41.752394,99.06536 Z m 28.64767,-22.730614 c -0.21828,-9.820407 -0.543772,-11.858301 -2.510806,-15.720089 -1.040516,-2.042801 -3.810186,-5.074831 -5.706,-6.246504 l -1.442788,-0.891695 2.304284,-1.65006 C 70.993157,46.134669 73.204682,32.298524 67.569631,23.517055 63.217432,16.734741 55.179089,13.249834 46.728212,14.481562 c -10.448643,1.522905 -17.328063,9.63671 -17.35766,20.472172 -0.01122,4.110104 0.531563,6.787713 2.032026,10.024088 1.216209,2.623263 4.529118,6.387754 6.605608,7.506017 l 1.47074,0.792047 -2.42359,1.784144 c -2.949016,2.170945 -5.618033,6.025161 -6.839361,9.87644 -0.749903,2.364712 -0.930414,4.265522 -1.122681,11.822005 l -0.229104,9.004237 h 20.872717 20.872716 z"
   id="path4590"
   inkscape:connector-curvature="0" /><path
   style="fill:#4700c9;fill-opacity:0;fill-rule:nonzero;stroke:#4700c9;stroke-width:0.17966102;stroke-miterlimit:4;stroke-dasharray:none;stroke-opacity:0"
   d="M 41.752394,99.06536 C 32.072988,97.442716 23.161193,92.932742 15.899775,85.982178 8.4222513,78.824758 4.028303,71.256267 1.6274184,61.398305 -2.4245736,44.760945 2.5774819,27.316746 14.947114,14.947114 32.735107,-2.8408792 60.255144,-4.6843119 80.254237,10.572509 c 3.33892,2.547181 8.801161,8.384915 11.081,11.842745 9.792263,14.851921 11.097783,32.850869 3.541615,48.82778 C 85.403576,91.27353 63.548831,102.71929 41.752394,99.06536 Z m 28.64767,-22.730614 c -0.21828,-9.820407 -0.543772,-11.858301 -2.510806,-15.720089 -1.040516,-2.042801 -3.810186,-5.074831 -5.706,-6.246504 l -1.442788,-0.891695 2.304284,-1.65006 C 70.993157,46.134669 73.204682,32.298524 67.569631,23.517055 63.217432,16.734741 55.179089,13.249834 46.728212,14.481562 c -10.448643,1.522905 -17.328063,9.63671 -17.35766,20.472172 -0.01122,4.110104 0.531563,6.787713 2.032026,10.024088 1.216209,2.623263 4.529118,6.387754 6.605608,7.506017 l 1.47074,0.792047 -2.42359,1.784144 c -2.949016,2.170945 -5.618033,6.025161 -6.839361,9.87644 -0.749903,2.364712 -0.930414,4.265522 -1.122681,11.822005 l -0.229104,9.004237 h 20.872717 20.872716 z"
   id="path4592"
   inkscape:connector-curvature="0" /><path
   style="fill:#4700c9;fill-opacity:0;fill-rule:nonzero;stroke:#4700c9;stroke-width:0.17966102;stroke-miterlimit:4;stroke-dasharray:none;stroke-opacity:0"
   d="M 41.752394,99.06536 C 32.072988,97.442716 23.161193,92.932742 15.899775,85.982178 8.4222513,78.824758 4.028303,71.256267 1.6274184,61.398305 -2.4245736,44.760945 2.5774819,27.316746 14.947114,14.947114 32.735107,-2.8408792 60.255144,-4.6843119 80.254237,10.572509 c 3.33892,2.547181 8.801161,8.384915 11.081,11.842745 9.792263,14.851921 11.097783,32.850869 3.541615,48.82778 C 85.403576,91.27353 63.548831,102.71929 41.752394,99.06536 Z m 28.64767,-22.730614 c -0.21828,-9.820407 -0.543772,-11.858301 -2.510806,-15.720089 -1.040516,-2.042801 -3.810186,-5.074831 -5.706,-6.246504 l -1.442788,-0.891695 2.304284,-1.65006 C 70.993157,46.134669 73.204682,32.298524 67.569631,23.517055 63.217432,16.734741 55.179089,13.249834 46.728212,14.481562 c -10.448643,1.522905 -17.328063,9.63671 -17.35766,20.472172 -0.01122,4.110104 0.531563,6.787713 2.032026,10.024088 1.216209,2.623263 4.529118,6.387754 6.605608,7.506017 l 1.47074,0.792047 -2.42359,1.784144 c -2.949016,2.170945 -5.618033,6.025161 -6.839361,9.87644 -0.749903,2.364712 -0.930414,4.265522 -1.122681,11.822005 l -0.229104,9.004237 h 20.872717 20.872716 z"
   id="path4594"
   inkscape:connector-curvature="0" /><path
   style="fill:#4700c9;fill-opacity:0;fill-rule:nonzero;stroke:#4700c9;stroke-width:0.17966102;stroke-miterlimit:4;stroke-dasharray:none;stroke-opacity:0"
   d="M 41.752394,99.06536 C 32.072988,97.442716 23.161193,92.932742 15.899775,85.982178 8.4222513,78.824758 4.028303,71.256267 1.6274184,61.398305 -2.4245736,44.760945 2.5774819,27.316746 14.947114,14.947114 32.735107,-2.8408792 60.255144,-4.6843119 80.254237,10.572509 c 3.33892,2.547181 8.801161,8.384915 11.081,11.842745 9.792263,14.851921 11.097783,32.850869 3.541615,48.82778 C 85.403576,91.27353 63.548831,102.71929 41.752394,99.06536 Z m 28.64767,-22.730614 c -0.21828,-9.820407 -0.543772,-11.858301 -2.510806,-15.720089 -1.040516,-2.042801 -3.810186,-5.074831 -5.706,-6.246504 l -1.442788,-0.891695 2.304284,-1.65006 C 70.993157,46.134669 73.204682,32.298524 67.569631,23.517055 63.217432,16.734741 55.179089,13.249834 46.728212,14.481562 c -10.448643,1.522905 -17.328063,9.63671 -17.35766,20.472172 -0.01122,4.110104 0.531563,6.787713 2.032026,10.024088 1.216209,2.623263 4.529118,6.387754 6.605608,7.506017 l 1.47074,0.792047 -2.42359,1.784144 c -2.949016,2.170945 -5.618033,6.025161 -6.839361,9.87644 -0.749903,2.364712 -0.930414,4.265522 -1.122681,11.822005 l -0.229104,9.004237 h 20.872717 20.872716 z"
   id="path4596"
   inkscape:connector-curvature="0" /><path
   style="fill:#4700c9;fill-opacity:0;fill-rule:nonzero;stroke:#4700c9;stroke-width:0.17966102;stroke-miterlimit:4;stroke-dasharray:none;stroke-opacity:0"
   d="M 41.752394,99.06536 C 32.072988,97.442716 23.161193,92.932742 15.899775,85.982178 8.4222513,78.824758 4.028303,71.256267 1.6274184,61.398305 -2.4245736,44.760945 2.5774819,27.316746 14.947114,14.947114 32.735107,-2.8408792 60.255144,-4.6843119 80.254237,10.572509 c 3.33892,2.547181 8.801161,8.384915 11.081,11.842745 9.792263,14.851921 11.097783,32.850869 3.541615,48.82778 C 85.403576,91.27353 63.548831,102.71929 41.752394,99.06536 Z m 28.64767,-22.730614 c -0.21828,-9.820407 -0.543772,-11.858301 -2.510806,-15.720089 -1.040516,-2.042801 -3.810186,-5.074831 -5.706,-6.246504 l -1.442788,-0.891695 2.304284,-1.65006 C 70.993157,46.134669 73.204682,32.298524 67.569631,23.517055 63.217432,16.734741 55.179089,13.249834 46.728212,14.481562 c -10.448643,1.522905 -17.328063,9.63671 -17.35766,20.472172 -0.01122,4.110104 0.531563,6.787713 2.032026,10.024088 1.216209,2.623263 4.529118,6.387754 6.605608,7.506017 l 1.47074,0.792047 -2.42359,1.784144 c -2.949016,2.170945 -5.618033,6.025161 -6.839361,9.87644 -0.749903,2.364712 -0.930414,4.265522 -1.122681,11.822005 l -0.229104,9.004237 h 20.872717 20.872716 z"
   id="path4598"
   inkscape:connector-curvature="0" /><path
   style="fill:#4700c9;fill-opacity:0;fill-rule:nonzero;stroke:#4700c9;stroke-width:0.17966102;stroke-miterlimit:4;stroke-dasharray:none;stroke-opacity:0"
   d="M 41.752394,99.06536 C 32.072988,97.442716 23.161193,92.932742 15.899775,85.982178 8.4222513,78.824758 4.028303,71.256267 1.6274184,61.398305 -2.4245736,44.760945 2.5774819,27.316746 14.947114,14.947114 32.735107,-2.8408792 60.255144,-4.6843119 80.254237,10.572509 c 3.33892,2.547181 8.801161,8.384915 11.081,11.842745 9.792263,14.851921 11.097783,32.850869 3.541615,48.82778 C 85.403576,91.27353 63.548831,102.71929 41.752394,99.06536 Z m 28.64767,-22.730614 c -0.21828,-9.820407 -0.543772,-11.858301 -2.510806,-15.720089 -1.040516,-2.042801 -3.810186,-5.074831 -5.706,-6.246504 l -1.442788,-0.891695 2.304284,-1.65006 C 70.993157,46.134669 73.204682,32.298524 67.569631,23.517055 63.217432,16.734741 55.179089,13.249834 46.728212,14.481562 c -10.448643,1.522905 -17.328063,9.63671 -17.35766,20.472172 -0.01122,4.110104 0.531563,6.787713 2.032026,10.024088 1.216209,2.623263 4.529118,6.387754 6.605608,7.506017 l 1.47074,0.792047 -2.42359,1.784144 c -2.949016,2.170945 -5.618033,6.025161 -6.839361,9.87644 -0.749903,2.364712 -0.930414,4.265522 -1.122681,11.822005 l -0.229104,9.004237 h 20.872717 20.872716 z"
   id="path4600"
   inkscape:connector-curvature="0" /><path
   style="fill:#4700c9;fill-opacity:0;fill-rule:nonzero;stroke:#4700c9;stroke-width:0.17966102;stroke-miterlimit:4;stroke-dasharray:none;stroke-opacity:0"
   d="M 41.752394,99.06536 C 32.072988,97.442716 23.161193,92.932742 15.899775,85.982178 8.4222513,78.824758 4.028303,71.256267 1.6274184,61.398305 -2.4245736,44.760945 2.5774819,27.316746 14.947114,14.947114 32.735107,-2.8408792 60.255144,-4.6843119 80.254237,10.572509 c 3.33892,2.547181 8.801161,8.384915 11.081,11.842745 9.792263,14.851921 11.097783,32.850869 3.541615,48.82778 C 85.403576,91.27353 63.548831,102.71929 41.752394,99.06536 Z m 28.64767,-22.730614 c -0.21828,-9.820407 -0.543772,-11.858301 -2.510806,-15.720089 -1.040516,-2.042801 -3.810186,-5.074831 -5.706,-6.246504 l -1.442788,-0.891695 2.304284,-1.65006 C 70.993157,46.134669 73.204682,32.298524 67.569631,23.517055 63.217432,16.734741 55.179089,13.249834 46.728212,14.481562 c -10.448643,1.522905 -17.328063,9.63671 -17.35766,20.472172 -0.01122,4.110104 0.531563,6.787713 2.032026,10.024088 1.216209,2.623263 4.529118,6.387754 6.605608,7.506017 l 1.47074,0.792047 -2.42359,1.784144 c -2.949016,2.170945 -5.618033,6.025161 -6.839361,9.87644 -0.749903,2.364712 -0.930414,4.265522 -1.122681,11.822005 l -0.229104,9.004237 h 20.872717 20.872716 z"
   id="path4602"
   inkscape:connector-curvature="0" /><path
   style="fill:#4700c9;fill-opacity:0;fill-rule:nonzero;stroke:#4700c9;stroke-width:0.17966102;stroke-miterlimit:4;stroke-dasharray:none;stroke-opacity:0"
   d="M 41.752394,99.06536 C 32.072988,97.442716 23.161193,92.932742 15.899775,85.982178 8.4222513,78.824758 4.028303,71.256267 1.6274184,61.398305 -2.4245736,44.760945 2.5774819,27.316746 14.947114,14.947114 32.735107,-2.8408792 60.255144,-4.6843119 80.254237,10.572509 c 3.33892,2.547181 8.801161,8.384915 11.081,11.842745 9.792263,14.851921 11.097783,32.850869 3.541615,48.82778 C 85.403576,91.27353 63.548831,102.71929 41.752394,99.06536 Z m 28.64767,-22.730614 c -0.21828,-9.820407 -0.543772,-11.858301 -2.510806,-15.720089 -1.040516,-2.042801 -3.810186,-5.074831 -5.706,-6.246504 l -1.442788,-0.891695 2.304284,-1.65006 C 70.993157,46.134669 73.204682,32.298524 67.569631,23.517055 63.217432,16.734741 55.179089,13.249834 46.728212,14.481562 c -10.448643,1.522905 -17.328063,9.63671 -17.35766,20.472172 -0.01122,4.110104 0.531563,6.787713 2.032026,10.024088 1.216209,2.623263 4.529118,6.387754 6.605608,7.506017 l 1.47074,0.792047 -2.42359,1.784144 c -2.949016,2.170945 -5.618033,6.025161 -6.839361,9.87644 -0.749903,2.364712 -0.930414,4.265522 -1.122681,11.822005 l -0.229104,9.004237 h 20.872717 20.872716 z"
   id="path4604"
   inkscape:connector-curvature="0" /><path
   style="fill:#4700c9;fill-opacity:0;fill-rule:nonzero;stroke:#4700c9;stroke-width:0.17966102;stroke-miterlimit:4;stroke-dasharray:none;stroke-opacity:0"
   d="M 41.752394,99.06536 C 32.072988,97.442716 23.161193,92.932742 15.899775,85.982178 8.4222513,78.824758 4.028303,71.256267 1.6274184,61.398305 -2.4245736,44.760945 2.5774819,27.316746 14.947114,14.947114 32.735107,-2.8408792 60.255144,-4.6843119 80.254237,10.572509 c 3.33892,2.547181 8.801161,8.384915 11.081,11.842745 9.792263,14.851921 11.097783,32.850869 3.541615,48.82778 C 85.403576,91.27353 63.548831,102.71929 41.752394,99.06536 Z m 28.64767,-22.730614 c -0.21828,-9.820407 -0.543772,-11.858301 -2.510806,-15.720089 -1.040516,-2.042801 -3.810186,-5.074831 -5.706,-6.246504 l -1.442788,-0.891695 2.304284,-1.65006 C 70.993157,46.134669 73.204682,32.298524 67.569631,23.517055 63.217432,16.734741 55.179089,13.249834 46.728212,14.481562 c -10.448643,1.522905 -17.328063,9.63671 -17.35766,20.472172 -0.01122,4.110104 0.531563,6.787713 2.032026,10.024088 1.216209,2.623263 4.529118,6.387754 6.605608,7.506017 l 1.47074,0.792047 -2.42359,1.784144 c -2.949016,2.170945 -5.618033,6.025161 -6.839361,9.87644 -0.749903,2.364712 -0.930414,4.265522 -1.122681,11.822005 l -0.229104,9.004237 h 20.872717 20.872716 z"
   id="path4606"
   inkscape:connector-curvature="0" /><path
   style="fill:#4700c9;fill-opacity:0;fill-rule:nonzero;stroke:#4700c9;stroke-width:0.17966102;stroke-miterlimit:4;stroke-dasharray:none;stroke-opacity:0"
   d="M 41.752394,99.06536 C 32.072988,97.442716 23.161193,92.932742 15.899775,85.982178 8.4222513,78.824758 4.028303,71.256267 1.6274184,61.398305 -2.4245736,44.760945 2.5774819,27.316746 14.947114,14.947114 32.735107,-2.8408792 60.255144,-4.6843119 80.254237,10.572509 c 3.33892,2.547181 8.801161,8.384915 11.081,11.842745 9.792263,14.851921 11.097783,32.850869 3.541615,48.82778 C 85.403576,91.27353 63.548831,102.71929 41.752394,99.06536 Z m 28.64767,-22.730614 c -0.21828,-9.820407 -0.543772,-11.858301 -2.510806,-15.720089 -1.040516,-2.042801 -3.810186,-5.074831 -5.706,-6.246504 l -1.442788,-0.891695 2.304284,-1.65006 C 70.993157,46.134669 73.204682,32.298524 67.569631,23.517055 63.217432,16.734741 55.179089,13.249834 46.728212,14.481562 c -10.448643,1.522905 -17.328063,9.63671 -17.35766,20.472172 -0.01122,4.110104 0.531563,6.787713 2.032026,10.024088 1.216209,2.623263 4.529118,6.387754 6.605608,7.506017 l 1.47074,0.792047 -2.42359,1.784144 c -2.949016,2.170945 -5.618033,6.025161 -6.839361,9.87644 -0.749903,2.364712 -0.930414,4.265522 -1.122681,11.822005 l -0.229104,9.004237 h 20.872717 20.872716 z"
   id="path4608"
   inkscape:connector-curvature="0" /><path
   style="fill:#4700c9;fill-opacity:0;fill-rule:nonzero;stroke:#4700c9;stroke-width:0.17966102;stroke-miterlimit:4;stroke-dasharray:none;stroke-opacity:0"
   d="M 41.125115,99.095559 C 26.547175,96.345911 14.130217,87.497691 6.6570449,74.533898 -4.3707886,55.403797 -0.98880517,30.5807 14.795948,14.795948 33.159413,-3.5675173 62.619725,-4.7229606 82.387513,12.144984 90.150669,18.769322 95.571636,27.4882 98.38911,37.881356 c 0.992983,3.66293 1.09125,4.750411 1.09125,12.076271 0,7.375026 -0.09409,8.399898 -1.120868,12.208975 -2.532522,9.394979 -6.406666,16.105635 -13.246958,22.945932 -6.867106,6.867102 -13.67472,10.787614 -22.945932,13.21458 -5.297373,1.386717 -15.741382,1.768136 -21.041487,0.768445 z M 70.079716,76.54661 c -0.0053,-9.748313 -0.284894,-11.786703 -2.104894,-15.346941 -1.424856,-2.787258 -2.919305,-4.546508 -5.37383,-6.326016 l -2.187145,-1.585661 1.454543,-0.783323 c 3.416868,-1.840105 7.073246,-7.195101 8.21308,-12.028585 0.800293,-3.393639 0.628094,-8.673732 -0.389635,-11.947326 -2.311907,-7.43641 -7.850966,-12.29399 -15.805788,-13.861175 -9.847178,-1.94 -19.34259,3.224255 -23.274996,12.658537 -1.295186,3.107296 -1.416969,11.667844 -0.215037,15.115715 1.191543,3.418068 3.927102,7.181703 6.707814,9.22875 l 2.472083,1.819843 -1.422056,0.878877 c -2.069731,1.279165 -5.127275,4.696356 -6.333661,7.078665 -2.130106,4.206428 -2.413414,6.025174 -2.413414,15.493344 v 8.821398 h 20.338983 20.338983 l -0.005,-9.216102 z"
   id="path4610"
   inkscape:connector-curvature="0" /><path
   style="fill:#4700c9;fill-opacity:0;fill-rule:nonzero;stroke:#4700c9;stroke-width:0.17966102;stroke-miterlimit:4;stroke-dasharray:none;stroke-opacity:0"
   d="M 41.752394,99.06536 C 32.072988,97.442716 23.161193,92.932742 15.899775,85.982178 8.4222513,78.824758 4.028303,71.256267 1.6274184,61.398305 -2.4245736,44.760945 2.5774819,27.316746 14.947114,14.947114 32.735107,-2.8408792 60.255144,-4.6843119 80.254237,10.572509 c 3.33892,2.547181 8.801161,8.384915 11.081,11.842745 9.792263,14.851921 11.097783,32.850869 3.541615,48.82778 C 85.403576,91.27353 63.548831,102.71929 41.752394,99.06536 Z m 28.64767,-22.730614 c -0.21828,-9.820407 -0.543772,-11.858301 -2.510806,-15.720089 -1.040516,-2.042801 -3.810186,-5.074831 -5.706,-6.246504 l -1.442788,-0.891695 2.304284,-1.65006 C 70.993157,46.134669 73.204682,32.298524 67.569631,23.517055 63.217432,16.734741 55.179089,13.249834 46.728212,14.481562 c -10.448643,1.522905 -17.328063,9.63671 -17.35766,20.472172 -0.01122,4.110104 0.531563,6.787713 2.032026,10.024088 1.216209,2.623263 4.529118,6.387754 6.605608,7.506017 l 1.47074,0.792047 -2.42359,1.784144 c -2.949016,2.170945 -5.618033,6.025161 -6.839361,9.87644 -0.749903,2.364712 -0.930414,4.265522 -1.122681,11.822005 l -0.229104,9.004237 h 20.872717 20.872716 z"
   id="path4612"
   inkscape:connector-curvature="0" /><path
   style="fill-opacity:0;fill-rule:nonzero;stroke:#4700c9;stroke-width:0.17966102;stroke-miterlimit:4;stroke-dasharray:none;stroke-opacity:0"
   d="M 41.752394,99.06536 C 32.072988,97.442716 23.161193,92.932742 15.899775,85.982178 8.4222513,78.824758 4.028303,71.256267 1.6274184,61.398305 -2.4245736,44.760945 2.5774819,27.316746 14.947114,14.947114 32.735107,-2.8408792 60.255144,-4.6843119 80.254237,10.572509 c 3.33892,2.547181 8.801161,8.384915 11.081,11.842745 9.792263,14.851921 11.097783,32.850869 3.541615,48.82778 C 85.403576,91.27353 63.548831,102.71929 41.752394,99.06536 Z m 28.64767,-22.730614 c -0.21828,-9.820407 -0.543772,-11.858301 -2.510806,-15.720089 -1.040516,-2.042801 -3.810186,-5.074831 -5.706,-6.246504 l -1.442788,-0.891695 2.304284,-1.65006 C 70.993157,46.134669 73.204682,32.298524 67.569631,23.517055 63.217432,16.734741 55.179089,13.249834 46.728212,14.481562 c -10.448643,1.522905 -17.328063,9.63671 -17.35766,20.472172 -0.01122,4.110104 0.531563,6.787713 2.032026,10.024088 1.216209,2.623263 4.529118,6.387754 6.605608,7.506017 l 1.47074,0.792047 -2.42359,1.784144 c -2.949016,2.170945 -5.618033,6.025161 -6.839361,9.87644 -0.749903,2.364712 -0.930414,4.265522 -1.122681,11.822005 l -0.229104,9.004237 h 20.872717 20.872716 z"
   id="path4614"
   inkscape:connector-curvature="0" /><path
   style="fill-opacity:1;fill-rule:nonzero;stroke:#4700c9;stroke-width:0.17966102;stroke-miterlimit:4;stroke-dasharray:none;stroke-opacity:0;fill:#000000"
   d="M 41.752394,99.06536 C 32.072988,97.442716 23.161193,92.932742 15.899775,85.982178 8.4222513,78.824758 4.028303,71.256267 1.6274184,61.398305 -2.4245736,44.760945 2.5774819,27.316746 14.947114,14.947114 32.735107,-2.8408792 60.255144,-4.6843119 80.254237,10.572509 c 3.33892,2.547181 8.801161,8.384915 11.081,11.842745 9.792263,14.851921 11.097783,32.850869 3.541615,48.82778 C 85.403576,91.27353 63.548831,102.71929 41.752394,99.06536 Z m 28.64767,-22.730614 c -0.21828,-9.820407 -0.543772,-11.858301 -2.510806,-15.720089 -1.040516,-2.042801 -3.810186,-5.074831 -5.706,-6.246504 l -1.442788,-0.891695 2.304284,-1.65006 C 70.993157,46.134669 73.204682,32.298524 67.569631,23.517055 63.217432,16.734741 55.179089,13.249834 46.728212,14.481562 c -10.448643,1.522905 -17.328063,9.63671 -17.35766,20.472172 -0.01122,4.110104 0.531563,6.787713 2.032026,10.024088 1.216209,2.623263 4.529118,6.387754 6.605608,7.506017 l 1.47074,0.792047 -2.42359,1.784144 c -2.949016,2.170945 -5.618033,6.025161 -6.839361,9.87644 -0.749903,2.364712 -0.930414,4.265522 -1.122681,11.822005 l -0.229104,9.004237 h 20.872717 20.872716 z"
   id="path4616"
   inkscape:connector-curvature="0" /><path
   style="fill:#4700c9;fill-opacity:1;fill-rule:nonzero;stroke:#4700c9;stroke-opacity:1"
   d="M 45.932203,99.268678 C 40.448073,98.907352 34.347718,97.206483 28.771186,94.483941 11.341147,85.974347 0.59322034,68.957797 0.59322034,49.871449 c 0,-20.36492 13.29890866,-39.28335 32.55468766,-46.3108396 23.682978,-8.6432175 49.859558,1.9722419 61.121694,24.7868486 3.520118,7.130975 4.676572,11.79287 4.940288,19.915254 0.308246,9.493843 -1.142636,15.99053 -5.441221,24.364407 -2.620478,5.104834 -5.309894,8.667822 -9.787038,12.966063 -4.36747,4.192945 -7.625216,6.434242 -13.275118,9.13314 -7.569348,3.615801 -15.835127,5.131326 -24.77431,4.542356 z M 70.674631,78.029661 C 70.384936,68.263352 69.915928,64.57364 68.598386,61.69575 67.329657,58.924483 64.637398,55.623013 62.639123,54.388013 l -1.469809,-0.908394 1.597546,-1.16189 C 68.283953,48.305157 71.306436,41.185826 70.789492,33.420737 70.233093,25.062946 65.357208,18.24931 57.891852,15.397388 54.810216,14.220139 48.289386,13.808965 45.028763,14.586299 c -7.406745,1.765773 -12.606495,6.501547 -14.806999,13.485763 -1.324274,4.203137 -1.245902,10.773073 0.17733,14.865574 1.203828,3.461606 3.809838,7.095686 6.445845,8.98872 l 1.789683,1.285254 -3.068072,3.034026 c -5.397149,5.337258 -6.306795,8.326932 -6.756983,22.207754 l -0.237059,7.309322 h 21.165755 21.165754 z"
   id="path4626"
   inkscape:connector-curvature="0" /></svg>