<?xml version="1.0" encoding="utf-8"?>
<!-- Generator: Adobe Illustrator 18.0.0, SVG Export Plug-In . SVG Version: 6.00 Build 0)  -->
<!DOCTYPE svg PUBLIC "-//W3C//DTD SVG 1.1//EN" "http://www.w3.org/Graphics/SVG/1.1/DTD/svg11.dtd">
<svg version="1.1" id="Layer_1" xmlns="http://www.w3.org/2000/svg" xmlns:xlink="http://www.w3.org/1999/xlink" x="0px" y="0px"
	 viewBox="0 0 100 100" enable-background="new 0 0 100 100" xml:space="preserve">
<path fill="#0041C4" d="M50,0C22.4,0,0,22.4,0,50s22.4,50,50,50s50-22.4,50-50S77.6,0,50,0z M70.1,71.6v14H29.4v-14
	c0-7.7,3.9-14.7,10.6-18.2C33.2,50,29.4,43.1,29.4,35c0-11,8-20.6,20.6-20.6S70.6,23.9,70.6,35c0,8.1-3.7,15-10.5,18.4
	C66.6,56.7,70.4,63.5,70.1,71.6z"/>
</svg>
